<?xml version="1.0" encoding="utf-8"?>
<!-- Generator: Adobe Illustrator 22.0.0, SVG Export Plug-In . SVG Version: 6.00 Build 0)  -->
<svg version="1.1" id="logo_h" xmlns="http://www.w3.org/2000/svg" xmlns:xlink="http://www.w3.org/1999/xlink" x="0px" y="0px"
	 viewBox="0 0 1000 94.3" style="enable-background:new 0 0 1000 94.3;" xml:space="preserve">
<g>
	<path d="M75.5,0.1H0v94.1h75.5c6,0,11.2-2.1,15.4-6.4c4.3-4.2,6.4-9.4,6.4-15.4V21.9c0-6-2.2-11.2-6.4-15.4
		C86.7,2.2,81.5,0.1,75.5,0.1z M14.7,13.4h57.8c2.9,0,5.3,0.9,7.2,2.9c1.9,2,2.9,4.3,2.9,7.2v47.2c0,2.9-0.9,5.2-2.9,7.2
		c-1.9,1.9-4.3,2.9-7.2,2.9H14.7V13.4z"/>
	<path d="M111.1,29.8c-4.1,3.7-6.2,8.3-6.2,13.5v31.9c0,5.3,2.1,9.8,6.2,13.5c4.1,3.7,9.1,5.6,15,5.6h50v-70h-50
		C120.3,24.2,115.2,26.1,111.1,29.8z M119.2,45.9c0-2.5,0.9-4.5,2.7-6.1c1.9-1.7,4.1-2.5,7-2.5h32.9v43.8h-32.9
		c-2.9,0-5.2-0.8-7-2.5c-1.8-1.6-2.7-3.6-2.7-6.1V45.9z"/>
	<path d="M198.6,11.1h-14.2c0,0,0,44.3,0,64c0,5.3,2.1,9.8,6.2,13.5c4.1,3.7,9.1,5.6,14.9,5.6h24.2v-13h-22.5
		c-2.5,0-4.5-0.8-6.1-2.6c-1.7-1.7-2.5-3.8-2.5-6.2V37.3h31.1V24.2h-31.1V11.1z"/>
	<path d="M244.3,29.8c-4.1,3.7-6.2,8.3-6.2,13.5v31.9c0,5.3,2.1,9.8,6.2,13.5c4.1,3.7,9.1,5.6,15,5.6h50v-70h-50
		C253.5,24.2,248.4,26.1,244.3,29.8z M252.4,45.9c0-2.5,0.9-4.5,2.7-6.1c1.9-1.7,4.1-2.5,7-2.5H295v43.8h-32.9c-2.9,0-5.2-0.8-7-2.5
		c-1.8-1.6-2.7-3.6-2.7-6.1V45.9z"/>
	<polygon points="410.3,0.1 370.2,79.2 330.2,0.1 313.4,0.1 362.1,94.2 378.4,94.2 427,0.1 	"/>
	<path d="M429,29.8c-4.1,3.7-6.2,8.3-6.2,13.5v31.9c0,5.3,2.1,9.8,6.2,13.5c4.1,3.7,9.1,5.6,15,5.6h50v-70h-50
		C438.2,24.2,433.1,26.1,429,29.8z M437.1,45.9c0-2.5,0.9-4.5,2.7-6.1c1.9-1.7,4.1-2.5,7-2.5h32.9v43.8h-32.9c-2.9,0-5.2-0.8-7-2.5
		c-1.8-1.6-2.7-3.6-2.7-6.1V45.9z"/>
	<path d="M560.1,72.6c0,2.5-0.9,4.5-2.7,6.1c-1.9,1.6-4.1,2.4-6.9,2.4h-24.3c-2.8,0-5.1-0.8-6.9-2.4c-1.8-1.6-2.7-3.6-2.7-6.1V24.2
		h-14.3v51c0,5.3,2.1,9.8,6.2,13.5c4.1,3.7,9.1,5.6,14.8,5.6h30.1c5.8,0,10.8-1.9,14.8-5.6c4.1-3.7,6.2-8.3,6.2-13.5v-51h-14.4V72.6
		z"/>
	<rect x="583.6" y="0.1" width="14.2" height="94.1"/>
	<path d="M621.1,11.1h-14.2c0,0,0,44.5,0,64c0,5.3,2.1,9.8,6.2,13.5c4.1,3.7,9.1,5.6,14.9,5.6h24.2v-13h-22.5
		c-2.5,0-4.5-0.8-6.1-2.6c-1.7-1.7-2.5-3.8-2.5-6.2V37.3h31.1V24.2h-31.1V11.1z"/>
	<path d="M774.1,0.1h-55.7c-6,0-11.2,2.1-15.4,6.4c-4.2,4.2-6.4,9.4-6.4,15.4v50.5c0,6,2.1,11.2,6.4,15.4c4.2,4.2,9.4,6.4,15.4,6.4
		h55.7c6,0,11.2-2.1,15.4-6.4c4.3-4.2,6.4-9.4,6.4-15.4V21.9c0-6-2.2-11.2-6.4-15.4C785.3,2.2,780.1,0.1,774.1,0.1z M781.3,23.5
		v47.2c0,2.9-0.9,5.2-2.9,7.2c-1.9,1.9-4.3,2.9-7.2,2.9h-49.7c-2.9,0-5.3-0.9-7.2-2.8c-1.9-1.9-2.8-4.3-2.8-7.2V23.5
		c0-2.9,0.9-5.3,2.8-7.2h0c1.9-1.9,4.3-2.9,7.2-2.9h49.7c2.9,0,5.3,0.9,7.2,2.9C780.3,18.3,781.3,20.7,781.3,23.5z"/>
	<polygon points="886.9,69.9 815.7,0.1 804.3,0.1 804.3,94.3 819.1,94.3 819.1,24.1 890.2,94.2 901.7,94.2 901.7,0 886.9,0 	"/>
	<path d="M927.5,16.6c1.9-1.9,4.3-2.8,7.2-2.8h65.3V0.1h-68.2c-6,0-11.2,2.1-15.4,6.4c-4.2,4.2-6.4,9.4-6.4,15.4v50.5
		c0,6,2.1,11.2,6.4,15.4c4.2,4.2,9.4,6.4,15.4,6.4h68.2V80.5h-65.3c-2.9,0-5.3-0.9-7.2-2.8c-1.9-1.9-2.8-4.3-2.8-7.2V52.4h62.6V38.7
		h-62.6v-15C924.7,20.8,925.6,18.5,927.5,16.6z"/>
</g>
</svg>
