<?xml version="1.0" encoding="utf-8"?>
<!-- Generator: Adobe Illustrator 22.0.0, SVG Export Plug-In . SVG Version: 6.00 Build 0)  -->
<svg version="1.1" id="Layer_1" xmlns="http://www.w3.org/2000/svg" xmlns:xlink="http://www.w3.org/1999/xlink" x="0px" y="0px"
	 viewBox="0 0 1200 817.1" style="enable-background:new 0 0 1200 817.1;" xml:space="preserve">
<style type="text/css">
	.st0{opacity:0;fill:#FFFFFF;}
	.st1{fill:#FFFFFF;}
	.st2{fill:#FD2740;}
</style>
<rect class="st0" width="1200" height="817.1"/>
<g>
	<g>
		<g>
			<g>
				<g>
					<g>
						<path class="st1" d="M324.8,226.1c6.6,0,12.3,2.3,17,7c4.7,4.7,7.1,10.3,7.1,17v58.3c0,6.6-2.4,12.3-7.1,17
							c-4.7,4.7-10.4,7-17,7h-85.9V226.1H324.8z M253.5,319.3h67.8c3.7,0,6.7-1.2,9.2-3.6c2.4-2.4,3.6-5.5,3.6-9.1V252
							c0-3.6-1.2-6.7-3.6-9.1c-2.4-2.5-5.5-3.7-9.2-3.7h-67.8V319.3z"/>
					</g>
				</g>
				<g>
					<g>
						<path class="st1" d="M379.1,332.4c-6.4,0-11.9-2-16.5-6.1c-4.5-4.1-6.8-9-6.8-14.7v-36.8c0-5.7,2.3-10.6,6.8-14.7
							c4.5-4.1,10-6.1,16.5-6.1h56.5v78.5H379.1z M421.4,266.8h-39.1c-3.6,0-6.5,1.1-8.9,3.2c-2.3,2.1-3.5,4.7-3.5,7.9v30.7
							c0,3.2,1.2,5.8,3.5,7.9c2.3,2.1,5.3,3.2,8.9,3.2h39.1V266.8z"/>
					</g>
				</g>
				<g>
					<g>
						<path class="st1" d="M457.6,238.9V254h35.9v12.7h-35.8v41.8c0,3,1.1,5.7,3.2,7.9c2.1,2.2,4.7,3.3,7.9,3.3h24.8v12.6h-26.8
							c-6.4,0-11.8-2-16.4-6.1c-4.5-4.1-6.8-9-6.8-14.7c0-23.3,0-47.6-0.1-72.7H457.6z"/>
					</g>
				</g>
				<g>
					<g>
						<path class="st1" d="M524.7,332.4c-6.4,0-11.9-2-16.5-6.1c-4.5-4.1-6.8-9-6.8-14.7v-36.8c0-5.7,2.3-10.6,6.8-14.7
							c4.5-4.1,10-6.1,16.5-6.1h56.5v78.5H524.7z M567,266.8h-39.1c-3.6,0-6.5,1.1-8.9,3.2c-2.3,2.1-3.5,4.7-3.5,7.9v30.7
							c0,3.2,1.2,5.8,3.5,7.9c2.3,2.1,5.3,3.2,8.9,3.2H567V266.8z"/>
					</g>
				</g>
				<g>
					<g>
						<path class="st1" d="M604,226.1l46.9,92.8l47-92.8h16.6l-54.8,106.3h-17.5l-54.9-106.3H604z"/>
					</g>
				</g>
				<g>
					<g>
						<path class="st1" d="M734.2,332.4c-6.4,0-11.9-2-16.5-6.1c-4.5-4.1-6.8-9-6.8-14.7v-36.8c0-5.7,2.3-10.6,6.8-14.7
							c4.5-4.1,10-6.1,16.5-6.1h56.5v78.5H734.2z M776.5,266.8h-39.1c-3.6,0-6.5,1.1-8.9,3.2c-2.3,2.1-3.5,4.7-3.5,7.9v30.7
							c0,3.2,1.2,5.8,3.5,7.9c2.3,2.1,5.3,3.2,8.9,3.2h39.1V266.8z"/>
					</g>
				</g>
				<g>
					<g>
						<path class="st1" d="M879.5,311.6c0,5.7-2.3,10.6-6.8,14.7c-4.5,4.1-10,6.1-16.3,6.1h-34.8c-6.4,0-11.8-2-16.3-6.1
							c-4.5-4.1-6.8-9-6.8-14.7V254h14.1v54.6c0,3.2,1.2,5.9,3.5,8c2.3,2.1,5.3,3.1,8.8,3.1h28c3.5,0,6.4-1,8.8-3.1
							c2.3-2.1,3.5-4.7,3.5-8V254h14.2V311.6z"/>
					</g>
				</g>
				<g>
					<g>
						<path class="st1" d="M888.3,226.1h14.1v106.3h-14.1V226.1z"/>
					</g>
				</g>
				<g>
					<g>
						<path class="st1" d="M925.2,238.9V254h35.9v12.7h-35.8v41.8c0,3,1.1,5.7,3.2,7.9c2.1,2.2,4.7,3.3,7.9,3.3h24.8v12.6h-26.8
							c-6.4,0-11.8-2-16.4-6.1c-4.5-4.1-6.8-9-6.8-14.7c0-23.3,0-47.6-0.1-72.7H925.2z"/>
					</g>
				</g>
			</g>
		</g>
		<g>
			<path class="st2" d="M426.5,364.7c14.1,0,26.1,5,36.2,15c10,10,15,22,15,36.1v124.1c0,14.1-5,26.1-15,36.1
				c-10,10-22.1,15-36.2,15H289.9c-14.1,0-26.1-5-36.1-15c-10-10-14.9-22-14.9-36.1V415.7c0-14.1,5-26.1,14.9-36.1
				c10-10,22-15,36.1-15H426.5z M277.7,400.3c-5.1,5.2-7.7,11.7-7.7,19.5v115.9c0,7.8,2.6,14.3,7.7,19.4c5.1,5.1,11.6,7.7,19.4,7.7
				h122c7.9,0,14.4-2.6,19.5-7.8c5.2-5.2,7.8-11.6,7.8-19.3V419.8c0-7.7-2.6-14.2-7.8-19.4c-5.2-5.2-11.7-7.8-19.5-7.8h-122
				C289.3,392.5,282.8,395.1,277.7,400.3z"/>
			<path class="st2" d="M728.4,590.8h-24.5L525.6,415.3V591h-31.2V364.7h24.5l178.3,174.7V364.5h31.2V590.8z"/>
			<path class="st2" d="M961.2,364.7v28.6H803.4c-7.8,0-14.3,2.6-19.4,7.7c-5.1,5.1-7.7,11.6-7.7,19.4v39.2h153.6v28.6H776.3v46.9
				c0,7.9,2.6,14.3,7.7,19.4c5.1,5.1,11.6,7.7,19.4,7.7h157.7v28.6h-165c-14.1,0-26.1-5-36.1-15c-10-10-15-22-15-36.1V415.7
				c0-14.1,5-26.1,15-36.1c10-10,22-15,36.1-15H961.2z"/>
		</g>
	</g>
</g>
</svg>
