<?xml version="1.0" encoding="utf-8"?>
<!-- Generator: Adobe Illustrator 22.0.0, SVG Export Plug-In . SVG Version: 6.00 Build 0)  -->
<svg version="1.1" id="logo_h" xmlns="http://www.w3.org/2000/svg" xmlns:xlink="http://www.w3.org/1999/xlink" x="0px" y="0px"
	 viewBox="0 0 996.8 96.6" style="enable-background:new 0 0 996.8 96.6;" xml:space="preserve">
<style type="text/css">
	.st0{fill:#FFFFFF;}
	.st1{fill:#FD2740;}
</style>
<g>
	<g>
		<g>
			<g>
				<g>
					<g>
						<path class="st0" d="M77.8,0.1c6,0,11.1,2.1,15.4,6.4c4.3,4.2,6.4,9.4,6.4,15.3v52.8c0,6-2.1,11.1-6.4,15.3
							c-4.3,4.2-9.4,6.4-15.4,6.4H0V0.1H77.8z M13.3,84.4h61.4c3.3,0,6.1-1.1,8.3-3.3s3.3-4.9,3.3-8.2V23.6c0-3.3-1.1-6-3.3-8.3
							c-2.2-2.2-5-3.3-8.3-3.3H13.3V84.4z"/>
					</g>
				</g>
				<g>
					<g>
						<path class="st0" d="M126.9,96.3c-5.8,0-10.8-1.8-14.9-5.5c-4.1-3.7-6.2-8.1-6.2-13.3V44.2c0-5.2,2.1-9.6,6.2-13.3
							c4.1-3.7,9.1-5.5,14.9-5.5H178v71L126.9,96.3L126.9,96.3z M165.3,36.9h-35.4c-3.2,0-5.9,1-8,2.9s-3.2,4.3-3.2,7.2v27.8
							c0,2.9,1.1,5.2,3.2,7.2c2.1,1.9,4.8,2.9,8,2.9h35.4V36.9z"/>
					</g>
				</g>
				<g>
					<g>
						<path class="st0" d="M198,11.6v13.7h32.5v11.5h-32.4v37.8c0,2.8,1,5.1,2.9,7.2c1.9,2,4.3,3,7.2,3h22.4v11.4h-24.3
							c-5.8,0-10.7-1.8-14.8-5.5c-4.1-3.7-6.2-8.1-6.2-13.3c0-21.1,0-43-0.1-65.8L198,11.6L198,11.6z"/>
					</g>
				</g>
				<g>
					<g>
						<path class="st0" d="M258.7,96.3c-5.8,0-10.8-1.8-14.9-5.5s-6.2-8.1-6.2-13.3V44.2c0-5.2,2.1-9.6,6.2-13.3s9.1-5.5,14.9-5.5
							h51.1v71L258.7,96.3L258.7,96.3z M297,36.9h-35.4c-3.2,0-5.9,1-8,2.9s-3.2,4.3-3.2,7.2v27.8c0,2.9,1.1,5.2,3.2,7.2
							c2.1,1.9,4.8,2.9,8,2.9H297V36.9z"/>
					</g>
				</g>
				<g>
					<g>
						<path class="st0" d="M330.4,0.1l42.5,84l42.5-84h15l-49.6,96.2H365L315.3,0.1H330.4z"/>
					</g>
				</g>
				<g>
					<g>
						<path class="st0" d="M448.3,96.3c-5.8,0-10.8-1.8-14.9-5.5c-4.1-3.7-6.2-8.1-6.2-13.3V44.2c0-5.2,2.1-9.6,6.2-13.3
							c4.1-3.7,9.1-5.5,14.9-5.5h51.1v71L448.3,96.3L448.3,96.3z M486.6,36.9h-35.4c-3.2,0-5.9,1-8,2.9S440,44.1,440,47v27.8
							c0,2.9,1.1,5.2,3.2,7.2c2.1,1.9,4.8,2.9,8,2.9h35.4V36.9z"/>
					</g>
				</g>
				<g>
					<g>
						<path class="st0" d="M579.8,77.4c0,5.2-2,9.6-6.1,13.3s-9,5.5-14.8,5.5h-31.5c-5.8,0-10.7-1.8-14.8-5.5s-6.1-8.1-6.1-13.3
							V25.2h12.8v49.5c0,2.9,1.1,5.3,3.2,7.2c2.1,1.9,4.8,2.8,8,2.8h25.4c3.2,0,5.8-0.9,8-2.8c2.1-1.9,3.2-4.3,3.2-7.2V25.2H580
							v52.2H579.8z"/>
					</g>
				</g>
				<g>
					<g>
						<path class="st0" d="M587.8,0.1h12.7v96.2h-12.7V0.1z"/>
					</g>
				</g>
				<g>
					<g>
						<path class="st0" d="M621.2,11.6v13.7h32.5v11.5h-32.4v37.8c0,2.8,1,5.1,2.9,7.2c1.9,2,4.3,3,7.2,3h22.4v11.4h-24.3
							c-5.8,0-10.7-1.8-14.8-5.5s-6.2-8.1-6.2-13.3c0-21.1,0-43-0.1-65.8L621.2,11.6L621.2,11.6z"/>
					</g>
				</g>
			</g>
		</g>
		<path class="st1" d="M769.3,0.1c6,0,11.1,2.1,15.4,6.4c4.3,4.2,6.4,9.4,6.4,15.3v52.8c0,6-2.1,11.1-6.4,15.3
			c-4.3,4.2-9.4,6.4-15.4,6.4h-58.1c-6,0-11.1-2.1-15.3-6.4c-4.2-4.2-6.4-9.4-6.4-15.3V21.8c0-6,2.1-11.1,6.4-15.3
			c4.2-4.2,9.4-6.4,15.3-6.4C711.2,0.1,769.3,0.1,769.3,0.1z M706,15.2c-2.2,2.2-3.3,5-3.3,8.3v49.3c0,3.3,1.1,6.1,3.3,8.3
			s4.9,3.3,8.3,3.3h51.9c3.3,0,6.1-1.1,8.3-3.3s3.3-4.9,3.3-8.2V23.6c0-3.3-1.1-6-3.3-8.3c-2.2-2.2-5-3.3-8.3-3.3h-51.9
			C711,11.9,708.2,13,706,15.2z"/>
		<path class="st1" d="M897.8,96.3h-10.4l-75.8-74.7v74.7h-13.3V0.1h10.4l75.8,74.3V0h13.3V96.3z"/>
		<path class="st1" d="M996.8,0.1v12.2h-67.1c-3.3,0-6.1,1.1-8.3,3.3c-2.2,2.2-3.3,4.9-3.3,8.3v16.7h65.4v12.2h-65.4v20
			c0,3.3,1.1,6.1,3.3,8.3s4.9,3.3,8.3,3.3h67.1v12.2h-70.2c-6,0-11.1-2.1-15.3-6.4c-4.2-4.2-6.4-9.4-6.4-15.3V21.8
			c0-6,2.1-11.1,6.4-15.3c4.2-4.2,9.4-6.4,15.3-6.4C926.6,0.1,996.8,0.1,996.8,0.1z"/>
	</g>
</g>
</svg>
