<?xml version="1.0" encoding="utf-8"?>
<!-- Generator: Adobe Illustrator 22.0.0, SVG Export Plug-In . SVG Version: 6.00 Build 0)  -->
<svg version="1.1" id="logo_h" xmlns="http://www.w3.org/2000/svg" xmlns:xlink="http://www.w3.org/1999/xlink" x="0px" y="0px"
	 viewBox="0 0 600 301.9" style="enable-background:new 0 0 600 301.9;" xml:space="preserve">
<style type="text/css">
	.st0{fill:#031F37;}
	.st1{fill:#FC273F;}
</style>
<g>
	<g>
		<path class="st0" d="M69.4,0H0v86.6h69.4c5.5,0,10.3-2,14.2-5.9c3.9-3.9,5.9-8.7,5.9-14.2V20.1c0-5.5-2-10.3-5.9-14.2
			C79.7,2,74.9,0,69.4,0z M13.6,12.3h53.1c2.7,0,4.9,0.9,6.7,2.7c1.8,1.8,2.6,4,2.6,6.6V65c0,2.7-0.9,4.8-2.6,6.6
			c-1.8,1.8-3.9,2.6-6.7,2.6H13.6V12.3z"/>
		<path class="st0" d="M102.2,27.3c-3.8,3.4-5.7,7.6-5.7,12.4v29.3c0,4.8,1.9,9,5.7,12.4c3.8,3.4,8.4,5.1,13.8,5.1h46V22.2h-46
			C110.6,22.2,106,23.9,102.2,27.3z M109.6,42.2c0-2.3,0.8-4.1,2.5-5.6c1.7-1.5,3.8-2.3,6.4-2.3h30.2v40.3h-30.2
			c-2.6,0-4.7-0.7-6.4-2.3c-1.7-1.5-2.5-3.3-2.5-5.6V42.2z"/>
		<path class="st0" d="M182.7,10.2h-13.1c0,0,0,40.8,0,58.9c0,4.8,1.9,9,5.7,12.4c3.8,3.4,8.4,5.1,13.7,5.1h22.3v-12h-20.7
			c-2.3,0-4.1-0.8-5.6-2.4c-1.5-1.6-2.3-3.5-2.3-5.7V34.2h28.6v-12h-28.6V10.2z"/>
		<path class="st0" d="M224.8,27.3c-3.8,3.4-5.7,7.6-5.7,12.4v29.3c0,4.8,1.9,9,5.7,12.4c3.8,3.4,8.4,5.1,13.8,5.1h46V22.2h-46
			C233.2,22.2,228.5,23.9,224.8,27.3z M232.2,42.2c0-2.3,0.8-4.1,2.5-5.6c1.7-1.5,3.8-2.3,6.4-2.3h30.2v40.3h-30.2
			c-2.6,0-4.7-0.7-6.4-2.3c-1.7-1.5-2.5-3.3-2.5-5.6V42.2z"/>
		<polygon class="st0" points="377.4,0 340.5,72.8 303.7,0 288.3,0 333,86.6 348.1,86.6 392.8,0 		"/>
		<path class="st0" d="M394.7,27.3c-3.8,3.4-5.7,7.6-5.7,12.4v29.3c0,4.8,1.9,9,5.7,12.4c3.8,3.4,8.4,5.1,13.8,5.1h46V22.2h-46
			C403.1,22.2,398.4,23.9,394.7,27.3z M402.1,42.2c0-2.3,0.8-4.1,2.5-5.6c1.7-1.5,3.8-2.3,6.4-2.3h30.2v40.3H411
			c-2.6,0-4.7-0.7-6.4-2.3c-1.7-1.5-2.5-3.3-2.5-5.6V42.2z"/>
		<path class="st0" d="M515.2,66.7c0,2.3-0.8,4.2-2.5,5.6c-1.7,1.5-3.8,2.3-6.4,2.3H484c-2.6,0-4.7-0.7-6.4-2.3
			c-1.7-1.5-2.5-3.3-2.5-5.6V22.2H462v46.9c0,4.8,1.9,9,5.7,12.4c3.8,3.4,8.3,5.1,13.7,5.1h27.7c5.3,0,9.9-1.7,13.7-5.1
			c3.8-3.4,5.7-7.6,5.7-12.4V22.2h-13.2V66.7z"/>
		<rect x="536.8" class="st0" width="13.1" height="86.6"/>
		<path class="st0" d="M571.4,10.2h-13.1c0,0,0,41,0,58.9c0,4.8,1.9,9,5.7,12.4c3.8,3.4,8.4,5.1,13.7,5.1H600v-12h-20.7
			c-2.3,0-4.1-0.8-5.6-2.4c-1.5-1.6-2.3-3.5-2.3-5.7V34.2H600v-12h-28.6V10.2z"/>
	</g>
	<g>
		<path class="st1" d="M153.2,115.6H43.1c-11.8,0-22.1,4.2-30.5,12.6C4.3,136.6,0,146.8,0,158.7v100c0,11.8,4.3,22.1,12.6,30.5
			c8.4,8.4,18.6,12.6,30.5,12.6h110.1c11.8,0,22.1-4.2,30.6-12.6c8.4-8.4,12.7-18.6,12.7-30.5v-100c0-11.8-4.3-22.1-12.7-30.5
			C175.3,119.8,165,115.6,153.2,115.6z M167.3,162v93.4c0,5.7-1.9,10.4-5.7,14.2c-3.8,3.8-8.5,5.7-14.3,5.7H49
			c-5.8,0-10.5-1.8-14.2-5.6c-3.8-3.8-5.6-8.4-5.6-14.2V162c0-5.8,1.8-10.5,5.6-14.3h0c3.8-3.8,8.4-5.7,14.2-5.7h98.3
			c5.8,0,10.5,1.9,14.3,5.7C165.4,151.6,167.3,156.3,167.3,162z"/>
		<polygon class="st1" points="376.3,253.6 235.5,115.6 212.9,115.6 212.9,301.9 242.1,301.9 242.1,163.2 382.9,301.8 405.5,301.8 
			405.5,115.4 376.3,115.4 		"/>
		<path class="st1" d="M456.7,148.2c3.8-3.8,8.4-5.6,14.2-5.6H600v-27.1H465c-11.8,0-22.1,4.2-30.5,12.6
			c-8.4,8.4-12.6,18.6-12.6,30.5v100c0,11.8,4.3,22.1,12.6,30.5c8.4,8.4,18.6,12.6,30.5,12.6h135v-27.1H470.9
			c-5.8,0-10.5-1.8-14.2-5.6c-3.8-3.8-5.6-8.4-5.6-14.2v-35.8h123.8v-27.1H451.1v-29.6C451.1,156.6,452.9,152,456.7,148.2z"/>
	</g>
</g>
</svg>
