<?xml version="1.0" encoding="utf-8"?>
<!-- Generator: Adobe Illustrator 22.0.0, SVG Export Plug-In . SVG Version: 6.00 Build 0)  -->
<svg version="1.1" id="logo_h" xmlns="http://www.w3.org/2000/svg" xmlns:xlink="http://www.w3.org/1999/xlink" x="0px" y="0px"
	 viewBox="0 0 600 303.1" style="enable-background:new 0 0 600 303.1;" xml:space="preserve">
<style type="text/css">
	.st0{fill:#031F37;}
	.st1{fill:#FD2740;}
</style>
<g>
	<g>
		<g>
			<g>
				<g>
					<g>
						<path class="st0" d="M71.4,0c5.5,0,10.2,1.9,14.1,5.8c3.9,3.9,5.9,8.6,5.9,14.1v48.5c0,5.5-2,10.2-5.9,14.1
							c-3.9,3.9-8.6,5.8-14.1,5.8H0V0H71.4z M12.2,77.4h56.3c3.1,0,5.6-1,7.6-3c2-2,3-4.5,3-7.6V21.5c0-3-1-5.5-3-7.6
							c-2-2-4.6-3.1-7.6-3.1H12.2V77.4z"/>
					</g>
				</g>
				<g>
					<g>
						<path class="st0" d="M116.5,88.3c-5.4,0-9.9-1.7-13.7-5.1c-3.8-3.4-5.7-7.5-5.7-12.2V40.4c0-4.8,1.9-8.8,5.7-12.2
							c3.8-3.4,8.3-5.1,13.7-5.1h46.9v65.2H116.5z M151.7,33.8h-32.5c-3,0-5.4,0.9-7.4,2.6c-1.9,1.8-2.9,3.9-2.9,6.6v25.5
							c0,2.6,1,4.8,2.9,6.6c1.9,1.8,4.4,2.6,7.4,2.6h32.5V33.8z"/>
					</g>
				</g>
				<g>
					<g>
						<path class="st0" d="M181.7,10.6v12.6h29.8v10.6h-29.8v34.7c0,2.5,0.9,4.7,2.6,6.6c1.8,1.9,3.9,2.8,6.6,2.8h20.6v10.5h-22.3
							c-5.3,0-9.8-1.7-13.6-5.1c-3.8-3.4-5.7-7.5-5.7-12.2c0-19.4,0-39.5-0.1-60.4H181.7z"/>
					</g>
				</g>
				<g>
					<g>
						<path class="st0" d="M237.4,88.3c-5.4,0-9.9-1.7-13.7-5.1c-3.8-3.4-5.7-7.5-5.7-12.2V40.4c0-4.8,1.9-8.8,5.7-12.2
							c3.8-3.4,8.3-5.1,13.7-5.1h46.9v65.2H237.4z M272.6,33.8h-32.5c-3,0-5.4,0.9-7.4,2.6c-1.9,1.8-2.9,3.9-2.9,6.6v25.5
							c0,2.6,1,4.8,2.9,6.6c1.9,1.8,4.4,2.6,7.4,2.6h32.5V33.8z"/>
					</g>
				</g>
				<g>
					<g>
						<path class="st0" d="M303.3,0l39,77.1l39-77.1h13.8l-45.5,88.3H335L289.4,0H303.3z"/>
					</g>
				</g>
				<g>
					<g>
						<path class="st0" d="M411.5,88.3c-5.4,0-9.9-1.7-13.7-5.1c-3.8-3.4-5.7-7.5-5.7-12.2V40.4c0-4.8,1.9-8.8,5.7-12.2
							c3.8-3.4,8.3-5.1,13.7-5.1h46.9v65.2H411.5z M446.6,33.8h-32.5c-3,0-5.4,0.9-7.4,2.6c-1.9,1.8-2.9,3.9-2.9,6.6v25.5
							c0,2.6,1,4.8,2.9,6.6c1.9,1.8,4.4,2.6,7.4,2.6h32.5V33.8z"/>
					</g>
				</g>
				<g>
					<g>
						<path class="st0" d="M532.2,71c0,4.8-1.9,8.8-5.6,12.2c-3.7,3.4-8.3,5.1-13.6,5.1h-28.9c-5.3,0-9.8-1.7-13.6-5.1
							c-3.7-3.4-5.6-7.5-5.6-12.2V23.1h11.7v45.4c0,2.7,1,4.9,2.9,6.6c1.9,1.7,4.4,2.6,7.3,2.6h23.3c2.9,0,5.4-0.9,7.3-2.6
							c1.9-1.7,2.9-3.9,2.9-6.6V23.1h11.8V71z"/>
					</g>
				</g>
				<g>
					<g>
						<path class="st0" d="M539.5,0h11.7v88.3h-11.7V0z"/>
					</g>
				</g>
				<g>
					<g>
						<path class="st0" d="M570.2,10.6v12.6H600v10.6h-29.8v34.7c0,2.5,0.9,4.7,2.6,6.6c1.8,1.9,3.9,2.8,6.6,2.8H600v10.5h-22.3
							c-5.3,0-9.8-1.7-13.6-5.1s-5.7-7.5-5.7-12.2c0-19.4,0-39.5-0.1-60.4H570.2z"/>
					</g>
				</g>
			</g>
		</g>
		<g>
			<path class="st1" d="M155.9,115.1c11.7,0,21.7,4.1,30,12.4c8.3,8.3,12.5,18.3,12.5,30v103.1c0,11.7-4.2,21.7-12.5,30
				c-8.3,8.3-18.3,12.4-30,12.4H42.4c-11.7,0-21.7-4.1-30-12.4C4.1,282.2,0,272.2,0,260.5V157.5c0-11.7,4.1-21.7,12.4-30
				c8.3-8.3,18.3-12.4,30-12.4H155.9z M32.3,144.7c-4.2,4.3-6.4,9.7-6.4,16.2v96.2c0,6.5,2.1,11.9,6.4,16.1
				c4.2,4.2,9.6,6.4,16.1,6.4h101.4c6.5,0,11.9-2.1,16.2-6.4c4.3-4.3,6.4-9.6,6.4-16.1v-96.2c0-6.4-2.2-11.8-6.4-16.1
				c-4.3-4.3-9.7-6.5-16.2-6.5H48.4C41.9,138.2,36.5,140.4,32.3,144.7z"/>
			<path class="st1" d="M406.6,302.9h-20.3L238.2,157.1v145.9h-25.9v-188h20.3l148.1,145.1V114.9h25.9V302.9z"/>
			<path class="st1" d="M600,115.1v23.8H469c-6.5,0-11.9,2.1-16.1,6.4c-4.2,4.2-6.4,9.6-6.4,16.1v32.6h127.6v23.8H446.5v39
				c0,6.5,2.1,11.9,6.4,16.1c4.2,4.2,9.6,6.4,16.1,6.4h131v23.8H462.9c-11.7,0-21.7-4.1-30-12.4c-8.3-8.3-12.4-18.3-12.4-30V157.5
				c0-11.7,4.1-21.7,12.4-30c8.3-8.3,18.3-12.4,30-12.4H600z"/>
		</g>
	</g>
</g>
</svg>
