<?xml version="1.0" encoding="utf-8"?>
<!-- Generator: Adobe Illustrator 22.0.0, SVG Export Plug-In . SVG Version: 6.00 Build 0)  -->
<svg version="1.1" id="Layer_1" xmlns="http://www.w3.org/2000/svg" xmlns:xlink="http://www.w3.org/1999/xlink" x="0px" y="0px"
	 viewBox="0 0 1442 329.8" style="enable-background:new 0 0 1442 329.8;" xml:space="preserve">
<style type="text/css">
	.st0{fill:#FFFFFF;}
</style>
<g>
	<g>
		<g>
			<path class="st0" d="M433.6,79.2h72.2c35.3,0,55.9,15.8,55.9,43.2c0,21.1-12.5,30.9-26.6,35.7v0.5c18,3.1,33.3,16.3,33.3,42
				c0,32.9-22.8,50.1-58.3,50.1h-76.5V79.2z M505.1,150.4c21.6,0,29-8.9,29-24.2c0-15.1-9.1-24.2-27.1-24.2h-47v48.4H505.1z
				 M508.2,227.9c25.4,0,32.6-12.2,32.6-28.3c0-18-11-28.3-29-28.3H460v56.6H508.2z"/>
			<path class="st0" d="M587.6,79.2h121.3V102h-95v48.7h83.2v22.8H614v54.4h97.4v22.8H587.6V79.2z"/>
			<path class="st0" d="M718.8,192.8h27.3c1.9,23,15.6,38.6,47.7,38.6c27.6,0,36-12,36-27.6c0-21.8-16.8-24.9-48-32.9
				c-26.9-7.2-56.4-15.8-56.4-48.4c0-29.7,23-46.8,60-46.8c39.1,0,64.5,19.9,67.1,54.4h-27.3c-2.9-20.6-14.6-31.9-39.6-31.9
				c-21.6,0-32.6,7.9-32.6,22.8c0,19.2,18,23.3,40,28.8c33.1,8.4,64.3,16.3,64.3,52.5c0,29.5-19.9,51.6-62.8,51.6
				C751.1,254,720.7,231.5,718.8,192.8z"/>
			<path class="st0" d="M875.6,79.2h121.3V102h-95v48.7h83.2v22.8H902v54.4h97.4v22.8H875.6V79.2z"/>
			<path class="st0" d="M1001.2,79.2h29l45.6,143.6h0.2l45.3-143.6h27.8l-59,171.5h-28.5L1001.2,79.2z"/>
			<path class="st0" d="M1162.6,79.2H1284V102h-95v48.7h83.2v22.8H1189v54.4h97.4v22.8h-123.7V79.2z"/>
			<path class="st0" d="M1305.1,79.2h30.2l79.6,131.9h0.5V79.2h26.6v171.5h-30.2l-79.9-131.9h-0.5v131.9h-26.4V79.2z"/>
		</g>
	</g>
	<path class="st0" d="M148.1,15.1L55.7,68.4c-74.3,42.9-74.3,150.1,0,193l92.4,53.3c74.3,42.9,167.1-10.7,167.1-96.5V111.6
		C315.2,25.8,222.3-27.8,148.1,15.1z M300.6,173.5L116,280.1c-6.6-3.8-8.2-4.8-14.8-8.6V58.3c6.6-3.8,8.2-4.8,14.8-8.6l184.6,106.6
		C300.6,164,300.6,165.9,300.6,173.5z"/>
</g>
</svg>
