<?xml version="1.0" encoding="utf-8"?>
<!-- Generator: Adobe Illustrator 22.0.0, SVG Export Plug-In . SVG Version: 6.00 Build 0)  -->
<svg version="1.1" id="logo_h" xmlns="http://www.w3.org/2000/svg" xmlns:xlink="http://www.w3.org/1999/xlink" x="0px" y="0px"
	 viewBox="0 0 1200 282.9" style="enable-background:new 0 0 1200 282.9;" xml:space="preserve">
<style type="text/css">
	.st0{fill:#FFFFFF;}
	.st1{fill:#031F37;}
	.st2{fill:#FC273F;}
</style>
<g>
	<rect class="st0" width="1200" height="282.9"/>
	<g>
		<g>
			<path class="st1" d="M175,94.3H99.4v94.3H175c6,0,11.2-2.2,15.5-6.4c4.3-4.2,6.4-9.4,6.4-15.4v-50.6c0-6-2.2-11.2-6.4-15.4
				C186.2,96.5,181,94.3,175,94.3z M114.2,107.7H172c2.9,0,5.3,0.9,7.2,2.9c1.9,2,2.9,4.3,2.9,7.2v47.3c0,2.9-0.9,5.2-2.9,7.2
				c-1.9,1.9-4.3,2.9-7.2,2.9h-57.8V107.7z"/>
			<path class="st1" d="M210.7,124c-4.1,3.7-6.2,8.3-6.2,13.5v31.9c0,5.3,2.1,9.8,6.2,13.5c4.1,3.7,9.1,5.6,15,5.6h50v-70.1h-50
				C219.8,118.5,214.8,120.4,210.7,124z M218.8,140.2c0-2.5,0.9-4.5,2.7-6.1c1.9-1.7,4.2-2.5,7-2.5h32.9v43.8h-32.9
				c-2.9,0-5.2-0.8-7-2.5c-1.8-1.6-2.7-3.6-2.7-6.1V140.2z"/>
			<path class="st1" d="M298.3,105.4h-14.2c0,0,0,44.4,0,64.1c0,5.3,2.1,9.8,6.2,13.5c4.1,3.7,9.1,5.6,14.9,5.6h24.3v-13H307
				c-2.5,0-4.5-0.8-6.1-2.6c-1.7-1.8-2.5-3.8-2.5-6.2v-35.3h31.1v-13.1h-31.2V105.4z"/>
			<path class="st1" d="M344,124c-4.1,3.7-6.2,8.3-6.2,13.5v31.9c0,5.3,2.1,9.8,6.2,13.5c4.1,3.7,9.1,5.6,15,5.6h50v-70.1h-50
				C353.2,118.5,348.2,120.4,344,124z M352.1,140.2c0-2.5,0.9-4.5,2.7-6.1c1.9-1.7,4.2-2.5,7-2.5h32.9v43.8h-32.9
				c-2.9,0-5.2-0.8-7-2.5c-1.8-1.6-2.7-3.6-2.7-6.1V140.2z"/>
			<polygon class="st1" points="510.2,94.3 470.1,173.6 430,94.3 413.2,94.3 461.9,188.6 478.3,188.6 526.9,94.3 			"/>
			<path class="st1" d="M528.9,124c-4.1,3.7-6.2,8.3-6.2,13.5v31.9c0,5.3,2.1,9.8,6.2,13.5c4.1,3.7,9.1,5.6,15,5.6h50v-70.1h-50
				C538.1,118.5,533.1,120.4,528.9,124z M537,140.2c0-2.5,0.9-4.5,2.7-6.1c1.9-1.7,4.2-2.5,7-2.5h32.9v43.8h-32.9
				c-2.9,0-5.2-0.8-7-2.5c-1.8-1.6-2.7-3.6-2.7-6.1V140.2z"/>
			<path class="st1" d="M660.2,166.9c0,2.5-0.9,4.5-2.7,6.1c-1.9,1.6-4.1,2.4-6.9,2.4h-24.3c-2.8,0-5.1-0.8-6.9-2.4
				c-1.8-1.6-2.7-3.6-2.7-6.1v-48.4h-14.3v51c0,5.3,2.1,9.8,6.2,13.5c4.1,3.7,9.1,5.6,14.9,5.6h30.2c5.8,0,10.8-1.9,14.9-5.6
				c4.1-3.7,6.2-8.3,6.2-13.5v-51h-14.4V166.9z"/>
			<rect x="683.6" y="94.3" class="st1" width="14.2" height="94.3"/>
			<path class="st1" d="M721.3,105.4H707c0,0,0,44.6,0,64.1c0,5.3,2.1,9.8,6.2,13.5c4.1,3.7,9.1,5.6,14.9,5.6h24.3v-13h-22.5
				c-2.5,0-4.5-0.8-6.1-2.6c-1.7-1.8-2.5-3.8-2.5-6.2v-35.3h31.1v-13.1h-31.2V105.4z"/>
		</g>
		<g>
			<path class="st2" d="M874.4,94.3h-55.7c-6,0-11.2,2.2-15.4,6.4c-4.2,4.2-6.4,9.4-6.4,15.4v50.6c0,6,2.2,11.2,6.4,15.4
				c4.2,4.2,9.4,6.4,15.4,6.4h55.7c6,0,11.2-2.2,15.5-6.4c4.3-4.2,6.4-9.4,6.4-15.4v-50.6c0-6-2.2-11.2-6.4-15.4
				C885.6,96.5,880.4,94.3,874.4,94.3z M881.6,117.8v47.3c0,2.9-0.9,5.2-2.9,7.2c-1.9,1.9-4.3,2.9-7.2,2.9h-49.8
				c-2.9,0-5.3-0.9-7.2-2.8c-1.9-1.9-2.8-4.3-2.8-7.2v-47.3c0-3,0.9-5.3,2.8-7.3h0c1.9-1.9,4.3-2.9,7.2-2.9h49.8
				c2.9,0,5.3,0.9,7.2,2.9C880.6,112.6,881.6,114.9,881.6,117.8z"/>
			<polygon class="st2" points="987.3,164.2 916.1,94.3 904.7,94.3 904.7,188.7 919.4,188.7 919.4,118.4 990.7,188.6 1002.1,188.6 
				1002.1,94.3 987.3,94.3 			"/>
			<path class="st2" d="M1028,110.8c1.9-1.9,4.3-2.8,7.2-2.8h65.3V94.3h-68.3c-6,0-11.2,2.2-15.4,6.4c-4.2,4.2-6.4,9.4-6.4,15.4
				v50.6c0,6,2.2,11.2,6.4,15.4c4.2,4.2,9.4,6.4,15.4,6.4h68.3v-13.7h-65.3c-2.9,0-5.3-0.9-7.2-2.8c-1.9-1.9-2.8-4.3-2.8-7.2v-18.1
				h62.6V133h-62.6v-15C1025.2,115.1,1026.1,112.8,1028,110.8z"/>
		</g>
	</g>
</g>
</svg>
