<?xml version="1.0" encoding="utf-8"?>
<!-- Generator: Adobe Illustrator 22.0.0, SVG Export Plug-In . SVG Version: 6.00 Build 0)  -->
<svg version="1.1" id="Layer_1" xmlns="http://www.w3.org/2000/svg" xmlns:xlink="http://www.w3.org/1999/xlink" x="0px" y="0px"
	 viewBox="0 0 1200 817.1" style="enable-background:new 0 0 1200 817.1;" xml:space="preserve">
<style type="text/css">
	.st0{fill:#031F37;}
	.st1{fill:#FFFFFF;}
	.st2{fill:#FC273F;}
</style>
<rect class="st0" width="1200" height="817.1"/>
<g>
	<g>
		<path class="st1" d="M322.4,226.8h-83.6v104.3h83.6c6.6,0,12.4-2.4,17.1-7.1c4.7-4.7,7.1-10.4,7.1-17.1v-56
			c0-6.6-2.4-12.4-7.1-17.1C334.8,229.2,329.1,226.8,322.4,226.8z M255.2,241.6h64c3.3,0,5.9,1,8,3.2c2.1,2.2,3.2,4.8,3.2,8v52.3
			c0,3.2-1,5.8-3.2,7.9c-2.1,2.1-4.8,3.2-8,3.2h-64V241.6z"/>
		<path class="st1" d="M361.9,259.7c-4.6,4.1-6.9,9.1-6.9,15V310c0,5.8,2.3,10.8,6.9,15c4.5,4.1,10.1,6.1,16.6,6.1h55.3v-77.5h-55.3
			C372,253.5,366.5,255.6,361.9,259.7z M370.8,277.6c0-2.7,1-4.9,3-6.8c2.1-1.8,4.6-2.7,7.8-2.7H418v48.5h-36.4
			c-3.2,0-5.7-0.9-7.8-2.7c-2-1.8-3-4-3-6.8V277.6z"/>
		<path class="st1" d="M458.8,239h-15.7c0,0,0,49.1,0,70.9c0,5.8,2.3,10.8,6.9,15c4.5,4.1,10.1,6.1,16.5,6.1h26.8v-14.4h-24.9
			c-2.7,0-5-0.9-6.8-2.9c-1.8-1.9-2.7-4.2-2.7-6.8v-39h34.4v-14.5h-34.5V239z"/>
		<path class="st1" d="M509.4,259.7c-4.6,4.1-6.9,9.1-6.9,15V310c0,5.8,2.3,10.8,6.9,15c4.5,4.1,10.1,6.1,16.6,6.1h55.3v-77.5H526
			C519.5,253.5,514,255.6,509.4,259.7z M518.3,277.6c0-2.7,1-4.9,3-6.8c2.1-1.8,4.6-2.7,7.8-2.7h36.4v48.5h-36.4
			c-3.2,0-5.7-0.9-7.8-2.7c-2-1.8-3-4-3-6.8V277.6z"/>
		<polygon class="st1" points="693.2,226.8 648.8,314.5 604.5,226.8 585.9,226.8 639.8,331.1 657.9,331.1 711.7,226.8 		"/>
		<path class="st1" d="M713.9,259.7c-4.6,4.1-6.9,9.1-6.9,15V310c0,5.8,2.3,10.8,6.9,15c4.5,4.1,10.1,6.1,16.6,6.1h55.3v-77.5h-55.3
			C724.1,253.5,718.5,255.6,713.9,259.7z M722.9,277.6c0-2.7,1-4.9,3-6.8c2.1-1.8,4.6-2.7,7.8-2.7H770v48.5h-36.4
			c-3.2,0-5.7-0.9-7.8-2.7c-2-1.8-3-4-3-6.8V277.6z"/>
		<path class="st1" d="M859.1,307.1c0,2.8-1,5-3,6.8c-2.1,1.8-4.6,2.7-7.7,2.7h-26.9c-3.1,0-5.6-0.9-7.7-2.7c-2-1.8-3-4-3-6.8v-53.6
			H795V310c0,5.8,2.3,10.8,6.9,15c4.5,4.1,10,6.1,16.4,6.1h33.4c6.4,0,11.9-2.1,16.4-6.1c4.6-4.1,6.9-9.1,6.9-15v-56.4h-15.9V307.1z
			"/>
		<rect x="885.1" y="226.8" class="st1" width="15.7" height="104.3"/>
		<path class="st1" d="M926.7,239h-15.7c0,0,0,49.3,0,70.9c0,5.8,2.3,10.8,6.9,15c4.5,4.1,10.1,6.1,16.5,6.1h26.8v-14.4h-24.9
			c-2.7,0-5-0.9-6.8-2.9c-1.8-1.9-2.7-4.2-2.7-6.8v-39h34.4v-14.5h-34.5V239z"/>
	</g>
	<g>
		<path class="st2" d="M423.3,365.9H290.8c-14.3,0-26.6,5.1-36.7,15.2c-10.1,10.1-15.2,22.4-15.2,36.7v120.4
			c0,14.3,5.1,26.6,15.2,36.7c10.1,10.1,22.4,15.2,36.7,15.2h132.5c14.3,0,26.6-5.1,36.8-15.2c10.2-10.1,15.3-22.4,15.3-36.7V417.8
			c0-14.3-5.1-26.6-15.3-36.7C449.9,371,437.5,365.9,423.3,365.9z M440.3,421.8v112.4c0,6.9-2.2,12.5-6.8,17.1
			c-4.6,4.6-10.2,6.8-17.2,6.8H297.8c-7,0-12.6-2.2-17.1-6.7c-4.5-4.5-6.7-10.1-6.7-17.1V421.8c0-7,2.2-12.7,6.7-17.2h0
			c4.5-4.6,10.1-6.8,17.1-6.8h118.4c7,0,12.6,2.3,17.2,6.9C438,409.3,440.3,414.9,440.3,421.8z"/>
		<polygon class="st2" points="691.8,532.1 522.3,365.9 495.2,365.9 495.2,590.3 530.3,590.3 530.3,423.2 699.8,590.1 727,590.1 
			727,365.7 691.8,365.7 		"/>
		<path class="st2" d="M788.6,405.2c4.5-4.5,10.1-6.7,17.1-6.7h155.4v-32.6H798.7c-14.3,0-26.6,5.1-36.7,15.2
			c-10.1,10.1-15.2,22.4-15.2,36.7v120.4c0,14.3,5.1,26.6,15.2,36.7c10.1,10.1,22.4,15.2,36.7,15.2h162.5v-32.6H805.7
			c-7,0-12.6-2.2-17.1-6.7c-4.5-4.5-6.7-10.1-6.7-17.1v-43.1h149V458h-149v-35.7C781.9,415.3,784.1,409.7,788.6,405.2z"/>
	</g>
</g>
</svg>
