<?xml version="1.0" encoding="utf-8"?>
<!-- Generator: Adobe Illustrator 22.0.0, SVG Export Plug-In . SVG Version: 6.00 Build 0)  -->
<svg version="1.1" id="logo_h" xmlns="http://www.w3.org/2000/svg" xmlns:xlink="http://www.w3.org/1999/xlink" x="0px" y="0px"
	 viewBox="0 0 1200 288.8" style="enable-background:new 0 0 1200 288.8;" xml:space="preserve">
<style type="text/css">
	.st0{fill:#FFFFFF;}
	.st1{fill:#031F37;}
	.st2{fill:#FD2740;}
</style>
<rect y="-0.1" class="st0" width="1200" height="288.8"/>
<g>
	<g>
		<g>
			<g>
				<g>
					<g>
						<path class="st1" d="M179.4,96.3c6,0,11.1,2.1,15.4,6.4c4.3,4.2,6.4,9.4,6.4,15.3v52.8c0,6-2.1,11.1-6.4,15.3
							c-4.3,4.2-9.4,6.4-15.4,6.4h-77.8V96.3H179.4z M114.9,180.6h61.4c3.3,0,6.1-1.1,8.3-3.3s3.3-4.9,3.3-8.2v-49.3
							c0-3.3-1.1-6-3.3-8.3c-2.2-2.2-5-3.3-8.3-3.3h-61.4V180.6z"/>
					</g>
				</g>
				<g>
					<g>
						<path class="st1" d="M228.5,192.5c-5.8,0-10.8-1.8-14.9-5.5c-4.1-3.7-6.2-8.1-6.2-13.3v-33.3c0-5.2,2.1-9.6,6.2-13.3
							c4.1-3.7,9.1-5.5,14.9-5.5h51.1v71L228.5,192.5L228.5,192.5z M266.9,133.1h-35.4c-3.2,0-5.9,1-8,2.9s-3.2,4.3-3.2,7.2V171
							c0,2.9,1.1,5.2,3.2,7.2c2.1,1.9,4.8,2.9,8,2.9h35.4V133.1z"/>
					</g>
				</g>
				<g>
					<g>
						<path class="st1" d="M299.6,107.8v13.7h32.5V133h-32.4v37.8c0,2.8,1,5.1,2.9,7.2c1.9,2,4.3,3,7.2,3h22.4v11.4h-24.3
							c-5.8,0-10.7-1.8-14.8-5.5c-4.1-3.7-6.2-8.1-6.2-13.3c0-21.1,0-43-0.1-65.8L299.6,107.8L299.6,107.8z"/>
					</g>
				</g>
				<g>
					<g>
						<path class="st1" d="M360.3,192.5c-5.8,0-10.8-1.8-14.9-5.5s-6.2-8.1-6.2-13.3v-33.3c0-5.2,2.1-9.6,6.2-13.3s9.1-5.5,14.9-5.5
							h51.1v71L360.3,192.5L360.3,192.5z M398.6,133.1h-35.4c-3.2,0-5.9,1-8,2.9s-3.2,4.3-3.2,7.2V171c0,2.9,1.1,5.2,3.2,7.2
							c2.1,1.9,4.8,2.9,8,2.9h35.4V133.1z"/>
					</g>
				</g>
				<g>
					<g>
						<path class="st1" d="M432,96.3l42.5,84l42.5-84h15l-49.6,96.2h-15.8l-49.7-96.2H432z"/>
					</g>
				</g>
				<g>
					<g>
						<path class="st1" d="M549.9,192.5c-5.8,0-10.8-1.8-14.9-5.5c-4.1-3.7-6.2-8.1-6.2-13.3v-33.3c0-5.2,2.1-9.6,6.2-13.3
							c4.1-3.7,9.1-5.5,14.9-5.5H601v71L549.9,192.5L549.9,192.5z M588.2,133.1h-35.4c-3.2,0-5.9,1-8,2.9s-3.2,4.3-3.2,7.2V171
							c0,2.9,1.1,5.2,3.2,7.2c2.1,1.9,4.8,2.9,8,2.9h35.4V133.1z"/>
					</g>
				</g>
				<g>
					<g>
						<path class="st1" d="M681.4,173.6c0,5.2-2,9.6-6.1,13.3s-9,5.5-14.8,5.5H629c-5.8,0-10.7-1.8-14.8-5.5s-6.1-8.1-6.1-13.3
							v-52.2h12.8v49.5c0,2.9,1.1,5.3,3.2,7.2c2.1,1.9,4.8,2.8,8,2.8h25.4c3.2,0,5.8-0.9,8-2.8c2.1-1.9,3.2-4.3,3.2-7.2v-49.5h12.9
							v52.2H681.4z"/>
					</g>
				</g>
				<g>
					<g>
						<path class="st1" d="M689.4,96.3h12.7v96.2h-12.7V96.3z"/>
					</g>
				</g>
				<g>
					<g>
						<path class="st1" d="M722.8,107.8v13.7h32.5V133h-32.4v37.8c0,2.8,1,5.1,2.9,7.2c1.9,2,4.3,3,7.2,3h22.4v11.4h-24.3
							c-5.8,0-10.7-1.8-14.8-5.5s-6.2-8.1-6.2-13.3c0-21.1,0-43-0.1-65.8L722.8,107.8L722.8,107.8z"/>
					</g>
				</g>
			</g>
		</g>
		<path class="st2" d="M870.9,96.3c6,0,11.1,2.1,15.4,6.4c4.3,4.2,6.4,9.4,6.4,15.3v52.8c0,6-2.1,11.1-6.4,15.3
			c-4.3,4.2-9.4,6.4-15.4,6.4h-58.1c-6,0-11.1-2.1-15.3-6.4c-4.2-4.2-6.4-9.4-6.4-15.3V118c0-6,2.1-11.1,6.4-15.3
			c4.2-4.2,9.4-6.4,15.3-6.4C812.8,96.3,870.9,96.3,870.9,96.3z M807.6,111.4c-2.2,2.2-3.3,5-3.3,8.3V169c0,3.3,1.1,6.1,3.3,8.3
			s4.9,3.3,8.3,3.3h51.9c3.3,0,6.1-1.1,8.3-3.3s3.3-4.9,3.3-8.2v-49.3c0-3.3-1.1-6-3.3-8.3c-2.2-2.2-5-3.3-8.3-3.3h-51.9
			C812.6,108.1,809.8,109.2,807.6,111.4z"/>
		<path class="st2" d="M999.4,192.5H989l-75.8-74.7v74.7h-13.3V96.3h10.4l75.8,74.3V96.2h13.3V192.5z"/>
		<path class="st2" d="M1098.4,96.3v12.2h-67.1c-3.3,0-6.1,1.1-8.3,3.3c-2.2,2.2-3.3,4.9-3.3,8.3v16.7h65.4V149h-65.4v20
			c0,3.3,1.1,6.1,3.3,8.3s4.9,3.3,8.3,3.3h67.1v12.2h-70.2c-6,0-11.1-2.1-15.3-6.4c-4.2-4.2-6.4-9.4-6.4-15.3V118
			c0-6,2.1-11.1,6.4-15.3c4.2-4.2,9.4-6.4,15.3-6.4C1028.2,96.3,1098.4,96.3,1098.4,96.3z"/>
	</g>
</g>
</svg>
