<?xml version="1.0" encoding="utf-8"?>
<!-- Generator: Adobe Illustrator 22.0.0, SVG Export Plug-In . SVG Version: 6.00 Build 0)  -->
<svg version="1.1" id="Layer_1" xmlns="http://www.w3.org/2000/svg" xmlns:xlink="http://www.w3.org/1999/xlink" x="0px" y="0px"
	 viewBox="0 0 1200 800" style="enable-background:new 0 0 1200 800;" xml:space="preserve">
<style type="text/css">
	.st0{fill:#111111;}
	.st1{fill:#FFFFFF;}
	.st2{fill:#FF5A39;}
</style>
<rect class="st0" width="1200" height="800"/>
<image style="overflow:visible;" width="1920" height="1080" xlink:href="9925FD45.jpg"  transform="matrix(1 0 0 1 1396 -49)">
</image>
<g id="Layer_2_1_">
	<g id="Layer_1-2">
		<path class="st1" d="M427.7,437.5h-68.5c1.1,20.7,12.7,30.1,28.5,30.1c10.5,0,20.3-4.7,23.9-15.4H426c-4.4,20.1-21.4,28.6-39,28.6
			c-23.4,0-42.8-15-42.8-46.8c0-28.6,17-48.2,43.2-48.2c22.3,0,40.3,12.3,40.3,42.8V437.5z M413,425.3c-0.2-15.4-7.3-26.3-25.2-26.3
			c-16.5,0-25.9,10.9-28.3,26.3H413z"/>
		<path class="st1" d="M438,387.6h14.5v15c4.7-10.7,14.9-16.9,27.2-16.9c11.8,0,22.8,5.6,26.1,18.1c5.4-12.5,17.8-18.1,30.8-18.1
			c15.6,0,28.8,9.4,28.8,27.7v65.3h-14.7v-60.5c0-12.9-7.8-19.2-17.9-19.2c-12,0-23.8,8.7-23.8,25.6v54.2h-14.7v-60.6
			c0-12.9-7.8-19.2-17.9-19.2c-12,0-23.6,8.7-23.6,25.6v54.2h-14.9L438,387.6z"/>
		<path class="st1" d="M580.9,478.8v-91.2h14.7v91.2H580.9z M580.2,369.1v-18.3h16.3v18.3H580.2z"/>
		<path class="st1" d="M611.9,387.6h14.5v17.2c5.6-11.4,16.1-19,32.5-19c20.1,0,31,11.6,31,31.4v61.6H675v-59.3
			c0-13.8-8.7-20.5-20.3-20.5c-15.2,0-27.9,11.4-27.9,31v48.8h-14.9V387.6z"/>
		<path class="st1" d="M782.5,437.5H714c1.1,20.7,12.7,30.1,28.5,30.1c10.5,0,20.3-4.7,23.9-15.4h14.5c-4.3,20.1-21.4,28.6-39,28.6
			c-23.4,0-42.8-15-42.8-46.8c0-28.6,17-48.2,43.1-48.2c22.3,0,40.3,12.3,40.3,42.8L782.5,437.5L782.5,437.5z M767.9,425.3
			c-0.2-15.4-7.2-26.3-25.2-26.3c-16.5,0-25.9,10.9-28.3,26.3H767.9z"/>
		<path class="st1" d="M792.9,387.6h14.5v17.2c5.6-11.4,16.1-19,32.5-19c20.1,0,31,11.6,31,31.4v61.6H856v-59.3
			c0-13.8-8.7-20.5-20.3-20.5c-15.2,0-27.9,11.4-27.9,31v48.8h-14.9V387.6z"/>
		<path class="st1" d="M962.8,446.7c-2,21.4-17.8,34.1-39.9,34.1c-28.8,0-42.8-21.4-42.8-47c0-26.3,14.9-48.1,43.7-48.1
			c21.8,0,37.4,11.8,38.8,32.8h-14.7c-1.1-12.7-10.3-19-23.9-19c-19.9,0-28.6,14.9-28.6,33.5c0,19,8.7,33.9,28.3,33.9
			c13.3,0,22.5-6.9,24.5-20.3L962.8,446.7z"/>
		<path class="st1" d="M1050,437.5h-68.5c1.1,20.7,12.7,30.1,28.5,30.1c10.5,0,20.3-4.7,23.9-15.4h14.5c-4.3,20.1-21.4,28.6-39,28.6
			c-23.4,0-42.8-15-42.8-46.8c0-28.6,17-48.2,43.2-48.2c22.3,0,40.2,12.3,40.2,42.8L1050,437.5L1050,437.5z M1035.3,425.3
			c-0.2-15.4-7.2-26.3-25.2-26.3c-16.5,0-25.9,10.9-28.3,26.3H1035.3z"/>
		<path class="st2" d="M302.7,480.8H176.9c-14.9,0-26.9-12.1-26.9-26.9V346.1c0-14.9,12.1-26.9,26.9-26.9h107.8
			c12.6,0,16.9,7.1,18.2,10.2c1.3,3.1,3.3,11.2-5.7,20.1L188.4,458.3h114.3V480.8L302.7,480.8z M176.9,341.6c-2.5,0-4.5,2-4.5,4.5
			v96.4l100.9-100.9H176.9z"/>
	</g>
</g>
</svg>
